<?xml version="1.0" standalone="no"?>
<!DOCTYPE svg PUBLIC "-//W3C//DTD SVG 20010904//EN"
 "http://www.w3.org/TR/2001/REC-SVG-20010904/DTD/svg10.dtd">
<svg version="1.0" xmlns="http://www.w3.org/2000/svg"
 width="10667.000000pt" height="7000.000000pt" viewBox="0 0 10667.000000 7000.000000"
 preserveAspectRatio="xMidYMid meet">

<g transform="translate(0.000000,7000.000000) scale(0.100000,-0.100000)"
fill="#000000" stroke="none">
<path d="M5261 29858 c-200 -405 -787 -1664 -794 -1702 -1 -6 66 -18 180 -31
100 -11 184 -23 188 -27 10 -9 -103 -259 -594 -1318 -83 -178 -147 -328 -142
-333 8 -8 111 -19 302 -32 52 -4 101 -10 108 -14 9 -6 7 -19 -8 -57 -23 -59
-473 -1026 -587 -1262 l-79 -162 -162 70 c-206 89 -769 346 -1818 833 -457
211 -854 394 -882 406 l-51 22 -79 -36 -80 -37 -73 31 c-40 17 -81 31 -92 31
-18 0 -415 -178 -550 -246 l-48 -24 0 -12985 0 -12985 53335 0 53335 0 0 9728
0 9727 -75 -153 c-44 -90 -81 -152 -87 -150 -15 5 -164 296 -178 346 -11 43
-4 79 18 86 10 3 71 10 137 17 66 6 126 16 133 22 7 6 22 28 33 48 17 35 19
61 19 331 l0 293 -76 -155 c-41 -85 -77 -156 -80 -159 -8 -8 -13 2 -200 399
-257 544 -290 628 -257 661 11 11 88 24 201 34 70 7 73 8 68 30 -5 18 -272
599 -525 1140 -63 134 -246 482 -272 516 l-18 24 -114 -235 c-210 -430 -684
-1443 -690 -1473 -1 -9 31 -14 118 -18 151 -7 185 -15 185 -40 0 -10 -11 -47
-24 -81 -36 -96 -239 -538 -247 -538 -3 0 -40 73 -82 163 -99 214 -374 807
-499 1077 -131 281 -208 457 -208 475 0 15 40 21 220 30 63 3 130 11 148 16
29 10 33 14 27 36 -11 45 -120 292 -355 803 -208 451 -315 687 -371 818 l-19
43 25 9 c13 5 93 14 177 21 84 6 157 15 162 20 14 12 -82 230 -387 884 -346
742 -542 1145 -556 1145 -27 0 -399 -759 -860 -1755 -85 -183 -117 -261 -108
-266 6 -3 73 -11 147 -18 148 -12 208 -25 216 -46 3 -7 -16 -62 -41 -122 -143
-327 -507 -1073 -525 -1073 -19 0 -221 415 -740 1520 -418 891 -520 1103 -535
1119 -12 12 -17 9 -35 -20 -56 -87 -609 -1231 -965 -1994 -265 -568 -339 -741
-333 -772 4 -23 60 -30 309 -39 102 -3 191 -9 198 -13 8 -6 8 -17 -3 -47 -22
-62 -158 -359 -272 -592 -97 -201 -105 -213 -126 -206 -54 17 -243 100 -505
223 l-282 132 -163 -75 c-90 -41 -273 -127 -408 -189 l-245 -115 -5 1423 c-3
783 -7 1426 -10 1428 -3 3 -158 -65 -345 -152 -482 -223 -512 -235 -540 -223
-32 15 -108 134 -191 297 -82 163 -198 434 -190 442 12 13 106 22 228 22 148
1 160 4 148 35 -4 12 -128 283 -275 602 -306 662 -358 781 -352 799 7 16 34
21 188 36 l126 12 -79 171 c-236 506 -430 931 -463 1010 -30 73 -34 91 -23
101 17 16 85 32 169 41 37 3 72 10 79 14 7 5 -14 62 -70 184 -144 315 -379
814 -512 1086 -121 249 -130 264 -144 245 -26 -34 -108 -184 -176 -320 -133
-265 -544 -1149 -550 -1181 -2 -16 4 -19 42 -22 107 -6 180 -23 195 -46 26
-40 4 -98 -236 -608 -244 -518 -314 -676 -306 -684 2 -2 55 -7 118 -10 158 -7
199 -13 199 -28 0 -13 -119 -275 -410 -901 -168 -361 -232 -506 -228 -510 2
-2 86 -8 188 -15 102 -7 188 -14 192 -16 11 -7 -15 -69 -196 -454 -299 -638
-451 -952 -460 -954 -9 -1 -129 268 -142 318 -5 23 -2 28 29 41 19 8 86 19
148 26 63 6 116 12 117 14 5 5 -69 174 -235 535 -191 414 -300 660 -308 692
-8 30 -12 28 164 45 58 6 87 13 94 23 11 19 -27 111 -195 470 -143 304 -501
1027 -524 1055 -15 20 -15 20 -36 -5 -55 -66 -718 -1456 -718 -1504 0 -25 33
-35 151 -46 61 -5 114 -12 117 -15 10 -10 -83 -219 -384 -862 -96 -204 -174
-375 -174 -380 0 -5 57 -15 127 -22 185 -18 186 -18 179 -51 -5 -28 -102 -244
-443 -985 -99 -214 -182 -398 -186 -407 -8 -22 12 -25 198 -33 77 -4 145 -11
152 -17 20 -16 16 -33 -26 -132 -54 -126 -250 -530 -255 -525 -2 2 -44 94 -94
204 -49 110 -242 529 -427 930 -447 966 -496 1078 -485 1089 8 8 226 20 460
25 62 2 67 12 40 78 -90 220 -1021 2206 -1219 2601 -39 78 -75 142 -81 142 -5
0 -28 -33 -50 -72 -137 -247 -637 -1274 -970 -1996 -65 -139 -121 -253 -125
-253 -4 0 -64 123 -134 273 -329 707 -570 1201 -588 1206 -7 2 -26 -18 -43
-45 -47 -74 -370 -730 -536 -1090 -82 -177 -152 -323 -155 -323 -3 0 -52 100
-109 223 -189 404 -354 717 -378 717 -12 0 -98 -168 -245 -480 -140 -297 -348
-764 -367 -824 -12 -36 -11 -41 9 -57 11 -9 54 -22 93 -29 40 -6 83 -13 95
-16 l23 -4 -24 -53 c-13 -28 -90 -191 -171 -362 -164 -346 -265 -575 -272
-620 -3 -21 0 -35 11 -44 12 -10 103 -27 169 -31 16 -1 47 -41 47 -61 0 -32
-30 -89 -56 -106 -31 -20 -85 -7 -264 62 -228 89 -438 184 -1925 877 -1276
595 -1376 641 -1480 678 l-50 18 -5 70 -5 70 -340 -157 c-482 -223 -512 -235
-540 -223 -32 15 -108 134 -191 297 -82 163 -198 434 -190 442 12 13 106 22
228 22 148 1 160 4 148 35 -4 12 -128 283 -275 602 -306 662 -358 781 -352
799 7 16 34 21 188 36 l126 12 -79 171 c-236 506 -430 931 -463 1010 -30 73
-34 91 -23 101 17 16 85 32 169 41 37 3 72 10 79 14 7 5 -14 62 -70 184 -144
315 -379 814 -512 1086 -121 249 -130 264 -144 245 -26 -34 -108 -184 -176
-320 -133 -265 -544 -1149 -550 -1181 -2 -16 4 -19 42 -22 107 -6 180 -23 195
-46 26 -40 4 -98 -236 -608 -244 -518 -314 -676 -306 -684 2 -2 55 -7 118 -10
158 -7 199 -13 199 -28 0 -13 -119 -275 -410 -901 -168 -361 -232 -506 -228
-510 2 -2 86 -8 188 -15 102 -7 188 -14 192 -16 11 -7 -15 -69 -196 -454 -299
-638 -451 -952 -460 -954 -9 -1 -129 268 -142 318 -5 23 -2 28 29 41 19 8 86
19 148 26 63 6 116 12 117 14 5 5 -69 174 -235 535 -191 414 -300 660 -308
692 -8 30 -12 28 164 45 58 6 87 13 94 23 11 19 -27 111 -195 470 -143 304
-501 1027 -524 1055 -15 20 -15 20 -36 -5 -55 -66 -718 -1456 -718 -1504 0
-25 33 -35 151 -46 61 -5 114 -12 117 -15 10 -10 -83 -219 -384 -862 -96 -204
-174 -375 -174 -380 0 -5 57 -15 127 -22 184 -18 186 -19 180 -50 -9 -41 -128
-301 -139 -301 -5 0 -132 55 -281 121 -349 156 -611 268 -710 304 -87 31 -104
47 -169 158 -46 79 -334 682 -344 721 -7 29 -2 30 174 47 83 8 122 16 122 24
0 7 -113 255 -250 551 -138 296 -249 543 -246 550 2 6 31 15 63 19 82 9 141
25 154 41 16 20 6 45 -214 529 -258 568 -233 503 -203 515 14 5 65 14 113 21
48 7 89 13 91 14 6 5 -426 925 -526 1119 -61 118 -67 127 -80 110 -32 -41
-399 -809 -544 -1139 -37 -84 -38 -90 -22 -102 10 -7 39 -13 64 -13 56 0 106
-16 114 -36 9 -24 -62 -192 -298 -703 -69 -150 -129 -284 -132 -296 -6 -26 6
-30 142 -41 45 -3 87 -10 94 -14 17 -10 -2 -54 -248 -580 -220 -472 -258 -558
-250 -566 3 -3 74 -8 157 -11 83 -3 151 -9 151 -14 0 -4 -39 -90 -86 -191 -48
-100 -102 -217 -121 -258 l-34 -75 -43 100 c-57 130 -221 482 -430 920 -222
467 -289 599 -303 603 -18 5 -54 -58 -203 -353 -189 -375 -600 -1251 -600
-1279 0 -14 31 -21 150 -31 96 -9 105 -12 118 -40 10 -21 8 -37 -8 -85 -21
-63 -126 -298 -235 -525 l-66 -140 -16 30 c-38 71 -405 874 -417 912 -6 19 -2
22 46 32 29 6 136 15 238 19 176 9 230 19 230 43 0 71 -1286 2774 -1326 2786
-15 5 -184 -348 -794 -1655 -529 -1134 -534 -1144 -549 -1115 -39 74 -309 658
-306 662 2 2 81 11 175 21 93 9 173 19 176 23 6 6 -39 106 -404 907 -186 409
-218 488 -204 502 13 13 131 37 187 38 73 1 88 9 82 45 -13 80 -753 1665 -778
1665 -11 0 -41 -55 -200 -365 -305 -598 -619 -1263 -619 -1312 0 -24 27 -30
170 -39 145 -8 142 -7 126 -52 -22 -59 -79 -186 -326 -717 -265 -571 -294
-639 -287 -658 4 -10 35 -16 114 -20 112 -6 209 -22 218 -37 14 -22 -657
-1464 -678 -1457 -22 7 -203 422 -213 488 -10 58 13 67 196 79 85 6 156 12
158 14 6 7 -61 161 -228 521 -438 946 -472 1023 -460 1030 12 7 134 23 243 31
54 4 99 10 101 13 12 21 -871 1881 -893 1881 -26 0 -338 -643 -752 -1550 -107
-234 -145 -326 -136 -331 7 -4 62 -10 122 -14 191 -12 209 -23 179 -111 -25
-76 -355 -811 -421 -939 l-21 -39 -32 64 c-18 35 -99 204 -180 375 -258 545
-313 656 -321 648 -11 -12 -236 -486 -496 -1043 -484 -1039 -687 -1460 -703
-1460 -12 0 -40 43 -79 122 -37 74 -63 104 -82 92 -7 -4 -70 -127 -142 -273
-71 -146 -131 -267 -132 -269 -2 -2 -187 81 -411 184 -225 103 -517 236 -649
295 -211 96 -240 111 -240 131 0 24 30 34 148 53 23 4 37 11 37 20 0 63 -543
1203 -578 1213 -11 4 -192 -356 -357 -710 -38 -81 -72 -145 -77 -142 -5 3 -24
37 -44 75 -65 130 -284 601 -290 624 -7 28 -1 29 174 46 83 8 122 16 122 24 0
7 -113 255 -250 551 -138 296 -249 543 -246 550 2 6 31 15 63 19 82 9 141 25
154 41 16 20 6 45 -214 529 -258 568 -233 503 -203 515 14 5 65 14 113 21 48
7 89 13 91 14 6 5 -426 925 -526 1119 -61 118 -67 127 -80 110 -32 -41 -399
-809 -544 -1139 -37 -84 -38 -90 -22 -102 10 -7 39 -13 64 -13 56 0 106 -16
114 -36 9 -24 -62 -192 -298 -703 -69 -150 -129 -284 -132 -296 -6 -26 6 -30
142 -41 45 -3 87 -10 94 -14 17 -10 -2 -54 -248 -580 -220 -472 -258 -558
-250 -566 3 -3 74 -8 157 -11 83 -3 151 -9 151 -14 0 -4 -39 -90 -86 -191
-181 -385 -531 -1144 -538 -1165 -8 -25 -10 -24 144 -43 112 -14 144 -23 148
-43 4 -22 -121 -297 -246 -541 l-97 -189 -157 -73 -158 -72 -76 149 c-42 82
-79 149 -83 149 -10 0 -29 -33 -127 -218 l-91 -173 -118 248 c-306 643 -790
1689 -809 1751 -6 18 -1 22 46 31 29 6 136 15 238 19 176 9 230 19 230 43 0
71 -1286 2774 -1326 2786 -15 5 -184 -348 -794 -1655 -529 -1134 -534 -1144
-549 -1115 -39 74 -309 658 -306 662 2 2 81 11 175 21 93 9 173 19 176 23 6 6
-39 106 -404 907 -186 409 -218 488 -204 502 13 13 131 37 187 38 73 1 88 9
82 45 -13 80 -753 1665 -778 1665 -11 0 -41 -55 -200 -365 -305 -598 -619
-1263 -619 -1312 0 -24 27 -30 170 -39 145 -8 142 -7 126 -52 -22 -59 -79
-186 -326 -717 -265 -571 -294 -639 -287 -658 4 -10 35 -16 114 -20 112 -6
209 -22 218 -37 14 -22 -657 -1464 -678 -1457 -22 7 -203 422 -213 488 -10 58
13 67 196 79 85 6 156 12 158 14 6 7 -61 161 -228 521 -438 946 -472 1023
-460 1030 12 7 134 23 243 31 54 4 99 10 101 13 12 21 -871 1881 -893 1881
-26 0 -338 -643 -752 -1550 -107 -234 -145 -326 -136 -331 7 -4 62 -10 122
-14 191 -12 209 -23 179 -111 -25 -76 -355 -811 -421 -939 l-21 -39 -32 64
c-18 35 -99 204 -180 375 -258 545 -313 656 -321 648 -11 -12 -236 -486 -496
-1043 -484 -1039 -687 -1460 -703 -1460 -12 0 -40 43 -79 122 -36 73 -63 104
-81 93 -27 -17 -634 -1293 -811 -1708 -61 -142 -68 -167 -46 -167 70 -1 283
-31 294 -42 11 -12 8 -27 -21 -100 -86 -214 -306 -691 -323 -701 -13 -8 -243
462 -250 511 -5 37 -4 40 28 51 19 7 78 15 131 18 63 4 102 11 109 19 12 15
-18 87 -216 509 -217 461 -264 576 -252 608 6 16 37 23 150 33 42 3 77 10 77
15 0 5 -90 207 -199 448 -225 494 -255 565 -248 585 5 13 43 23 150 41 22 4
37 11 37 20 0 63 -543 1203 -578 1213 -17 5 -422 -829 -537 -1106 -48 -115
-44 -124 46 -133 35 -4 72 -10 82 -14 43 -18 15 -98 -198 -560 -168 -364 -215
-472 -215 -489 0 -8 37 -16 107 -24 59 -6 111 -16 116 -21 19 -19 -73 -234
-257 -599 -108 -214 -159 -302 -174 -302 -13 0 -106 185 -332 660 -266 559
-320 664 -337 647 -24 -23 -445 -916 -720 -1527 -146 -322 -159 -358 -146
-371 6 -6 45 -15 87 -21 42 -6 76 -14 76 -18 0 -4 -9 -27 -20 -51 -31 -68 -27
-87 18 -94 20 -3 51 -9 69 -13 l32 -7 -108 -225 c-60 -124 -125 -254 -144
-290 l-36 -65 -87 178 c-55 112 -84 181 -78 187 6 6 83 13 172 16 112 5 162
11 158 18 -2 6 -131 281 -286 611 -155 330 -343 733 -417 895 -75 162 -151
329 -170 370 l-35 75 -21 -42 -22 -42 -54 105 c-30 57 -57 104 -60 104 -13 0
-60 -85 -204 -368 -82 -162 -153 -290 -157 -285 -10 10 -226 460 -411 856
-168 360 -274 573 -289 582 -6 4 -21 -1 -32 -12 -11 -10 -100 -177 -196 -371
l-176 -354 -44 88 -45 89 -58 -115 c-31 -63 -128 -262 -215 -442 l-157 -327
-144 305 c-216 459 -248 543 -216 575 11 11 88 24 201 34 70 7 73 8 68 30 -5
18 -272 599 -525 1140 -63 134 -246 482 -272 516 l-18 24 -114 -235 c-210
-430 -684 -1443 -690 -1473 -1 -9 31 -14 118 -18 151 -7 185 -15 185 -40 0
-10 -11 -47 -24 -81 -36 -96 -239 -538 -247 -538 -3 0 -40 73 -82 163 -99 214
-374 807 -499 1077 -131 281 -208 457 -208 475 0 15 40 21 220 30 63 3 130 11
148 16 29 10 33 14 27 36 -11 45 -120 292 -355 803 -208 451 -315 687 -371
818 l-19 43 25 9 c13 5 93 14 177 21 84 6 157 15 162 20 14 12 -82 230 -387
884 -346 742 -542 1145 -556 1145 -27 0 -399 -759 -860 -1755 -85 -183 -117
-261 -108 -266 6 -3 73 -11 147 -18 148 -12 208 -25 216 -46 3 -7 -16 -62 -41
-122 -143 -327 -507 -1073 -525 -1073 -19 0 -221 415 -740 1520 -418 891 -520
1103 -535 1119 -12 12 -17 9 -35 -20 -56 -87 -609 -1231 -965 -1994 -265 -568
-339 -741 -333 -772 4 -23 60 -30 309 -39 102 -3 191 -9 198 -13 8 -6 8 -17
-3 -47 -22 -62 -158 -359 -272 -592 -97 -201 -105 -213 -126 -206 -54 17 -242
100 -504 223 l-281 131 -44 -18 c-24 -11 -244 -113 -489 -227 -961 -449 -1263
-579 -1325 -573 -27 3 -35 13 -77 93 -79 152 -452 950 -460 985 -3 15 24 20
175 34 42 4 77 12 77 17 0 11 -216 475 -414 888 -140 292 -219 446 -236 456
-5 3 -19 -9 -31 -27 -22 -35 -197 -388 -367 -743 -152 -316 -255 -505 -274
-505 -7 0 -129 246 -291 585 -147 309 -246 505 -256 505 -28 0 -598 -1175
-634 -1307 -8 -31 -8 -46 0 -54 5 -5 57 -15 114 -20 57 -5 105 -11 107 -13 5
-6 -36 -100 -204 -463 -213 -462 -284 -622 -284 -645 0 -26 37 -37 144 -44
157 -9 154 17 26 -230 -143 -276 -166 -315 -188 -307 -9 4 -71 31 -137 60 -66
30 -132 59 -146 64 -20 8 -37 33 -73 112 l-48 102 -31 -62 c-17 -35 -34 -63
-37 -63 -3 0 -189 87 -415 193 l-410 192 -37 75 c-21 41 -91 186 -156 321 -66
135 -124 249 -131 253 -23 14 -52 -27 -141 -205 l-90 -178 -218 105 c-230 111
-378 189 -387 203 -8 14 46 20 283 31 250 12 276 18 263 52 -19 48 -270 598
-566 1238 -413 893 -466 1013 -455 1024 8 8 226 20 460 25 62 2 67 12 40 78
-90 220 -1021 2206 -1219 2601 -39 78 -75 142 -81 142 -12 0 -65 -96 -204
-370 -264 -521 -815 -1681 -1051 -2214 -37 -81 -50 -104 -56 -90 -25 69 -376
826 -634 1369 -170 359 -254 525 -264 525 -17 0 -234 -424 -466 -912 l-108
-227 -111 222 c-111 221 -178 337 -194 337 -12 0 -98 -168 -245 -480 -140
-297 -348 -764 -367 -824 -12 -36 -11 -41 9 -57 11 -9 54 -22 93 -29 103 -16
119 -20 115 -28 -2 -4 -62 -130 -132 -279 -71 -150 -132 -270 -136 -265 -3 4
-106 221 -228 482 -547 1167 -671 1424 -686 1423 -5 0 -28 -31 -50 -69 -45
-78 -400 -808 -680 -1396 -104 -219 -192 -398 -195 -398 -4 0 -229 104 -501
231 -1119 522 -1354 629 -1391 629 -23 0 -201 -82 -1177 -539 -377 -177 -687
-321 -690 -321 -3 0 -26 39 -51 86 -25 47 -50 90 -57 96 -15 12 -30 -12 -120
-187 -36 -71 -67 -131 -68 -133 -5 -6 -778 -363 -780 -360 -1 2 -56 114 -123
251 -66 136 -125 247 -130 247 -13 0 -128 -218 -282 -535 -72 -148 -136 -273
-143 -277 -31 -20 -220 -98 -236 -98 -22 0 -144 234 -296 565 -104 225 -119
265 -106 278 5 5 54 14 108 19 54 5 102 13 107 18 14 14 -7 76 -97 275 -98
218 -472 969 -520 1044 l-35 54 -15 -24 c-37 -57 -627 -1311 -627 -1333 0 -10
33 -17 122 -25 68 -7 126 -15 130 -17 9 -6 -3 -32 -281 -616 -127 -268 -231
-489 -231 -492 0 -2 49 -5 108 -7 134 -5 168 -21 159 -75 -18 -112 -142 -339
-237 -435 -59 -59 -83 -74 -270 -167 -217 -107 -436 -202 -466 -202 -19 0
-241 114 -262 134 -20 19 15 24 276 36 250 12 276 18 263 52 -19 48 -270 598
-566 1238 -413 893 -466 1013 -455 1024 8 8 226 20 460 25 62 2 67 12 40 78
-90 220 -1021 2206 -1219 2601 -39 78 -75 142 -81 142 -12 0 -65 -96 -204
-370 -320 -632 -1004 -2083 -1126 -2388 -15 -39 -13 -41 38 -53 29 -6 416 -38
475 -39 4 0 7 -4 7 -10 0 -15 -312 -680 -319 -680 -14 0 -570 1213 -574 1253
-3 27 23 33 218 46 110 8 164 15 173 25 18 17 11 32 -380 881 -300 651 -354
773 -344 783 3 3 80 11 170 18 91 7 170 15 176 19 7 4 9 18 5 34 -35 141 -924
2021 -956 2021 -5 0 -85 -154 -178 -342z m17114 -4033 c110 -8 206 -15 213
-15 6 0 12 -4 12 -10 0 -11 -256 -561 -351 -753 -34 -70 -66 -124 -70 -120 -7
8 -260 554 -324 703 -18 41 -42 97 -54 123 l-21 48 26 9 c27 11 199 26 304 28
36 1 155 -5 265 -13z m12855 -1421 c17 -4 34 -13 37 -20 3 -7 -18 -63 -46
-123 -56 -119 -61 -145 -32 -160 10 -6 103 -17 206 -26 104 -8 190 -17 193
-20 9 -8 -275 -625 -288 -625 -14 0 -353 739 -404 879 -32 88 -32 89 -3 94 36
7 302 8 337 1z m19201 -4 c56 -16 60 -27 38 -90 -39 -112 -208 -430 -228 -430
-11 0 -70 102 -143 250 -85 173 -112 240 -100 252 17 17 99 26 247 27 83 0
166 -4 186 -9z m15330 0 c56 -16 60 -27 38 -90 -39 -112 -208 -430 -228 -430
-11 0 -70 102 -143 250 -85 173 -112 240 -100 252 17 17 99 26 247 27 83 0
166 -4 186 -9z m-40917 -219 c19 -20 19 -20 -9 -93 -61 -157 -208 -422 -230
-415 -24 7 -153 291 -137 301 4 2 46 9 95 16 52 7 96 19 109 29 20 16 20 21 9
85 -6 37 -9 71 -5 77 21 34 134 34 168 0z m44606 22 c0 -14 -135 -302 -141
-303 -11 0 -91 202 -96 241 -5 34 -3 37 28 47 48 15 75 19 147 21 34 0 62 -2
62 -6z m14026 -1 c31 -21 34 -50 13 -117 -12 -36 -25 -63 -28 -60 -3 4 -11 23
-17 43 -6 20 -21 61 -33 90 l-21 52 38 0 c20 0 42 -4 48 -8z m1194 -1 c0 -5
-14 -40 -31 -78 -17 -37 -35 -79 -41 -93 -10 -24 -11 -22 -34 35 -33 86 -32
111 9 124 17 5 43 12 57 14 14 2 28 5 33 6 4 0 7 -3 7 -8z m-1230 -230 c0 -22
-104 -231 -111 -224 -18 19 -89 197 -82 204 22 22 193 39 193 20z m1425 -86
c110 -8 206 -15 213 -15 6 0 12 -4 12 -9 0 -14 -213 -471 -219 -471 -6 0 -224
470 -229 495 -4 18 -23 18 223 0z m-37111 -355 c14 -5 26 -15 26 -22 0 -21
-111 -235 -140 -270 l-27 -32 -25 39 c-27 45 -65 129 -102 228 l-25 67 134 0
c73 0 145 -4 159 -10z m2330 -3 c16 -12 14 -18 -25 -96 l-42 -84 -18 24 c-10
13 -31 52 -46 87 -22 53 -24 65 -12 73 21 13 123 11 143 -4z m13000 3 c14 -5
26 -15 26 -22 0 -21 -111 -235 -140 -270 l-27 -32 -25 39 c-27 45 -65 129
-102 228 l-25 67 134 0 c73 0 145 -4 159 -10z m2330 -3 c16 -12 14 -18 -25
-96 l-42 -84 -18 24 c-10 13 -31 52 -46 87 -22 53 -24 65 -12 73 21 13 123 11
143 -4z m9370 -453 c20 -8 20 -36 1 -73 -20 -40 -46 -47 -67 -21 -24 29 -23
49 4 77 22 24 35 27 62 17z m15330 0 c20 -8 20 -36 1 -73 -20 -40 -46 -47 -67
-21 -24 29 -23 49 4 77 22 24 35 27 62 17z m-63954 -39 c0 -3 -37 -24 -82 -46
-90 -43 -142 -48 -162 -16 -17 26 5 51 50 58 51 8 194 11 194 4z m17745 -84
c21 -4 31 -13 33 -28 4 -25 -69 -172 -97 -197 -17 -16 -20 -14 -43 16 -39 51
-90 157 -86 181 2 13 13 24 28 28 31 9 125 9 165 0z m15330 0 c21 -4 31 -13
33 -28 4 -25 -69 -172 -97 -197 -17 -16 -20 -14 -43 16 -39 51 -90 157 -86
181 2 13 13 24 28 28 31 9 125 9 165 0z m38485 -487 c17 -4 34 -13 37 -20 3
-7 -18 -63 -46 -123 -56 -119 -61 -145 -32 -160 10 -6 103 -17 206 -26 104 -8
190 -17 193 -20 9 -8 -275 -625 -288 -625 -14 0 -353 739 -404 879 -32 88 -32
89 -3 94 36 7 302 8 337 1z m-63586 -314 c19 -19 -117 -341 -150 -354 -25 -9
-50 18 -85 92 -54 114 -110 263 -103 274 8 13 324 2 338 -12z m53287 -640
c-57 -28 -110 -50 -118 -50 -15 0 -120 57 -128 70 -9 14 102 25 260 28 l90 1
-104 -49z m-53205 5 c28 -28 27 -42 -10 -110 -29 -55 -54 -53 -83 5 -27 52
-29 92 -7 114 24 24 71 20 100 -9z m6394 -126 c0 -28 -27 -83 -51 -104 -15
-14 -22 -15 -33 -6 -26 22 -35 65 -20 99 12 29 17 32 59 32 39 0 45 -3 45 -21z
m-173 -372 c13 -13 13 -18 0 -43 -27 -52 -77 -114 -92 -114 -16 0 -75 116 -75
148 0 11 6 23 13 26 24 11 139 -2 154 -17z m60187 -807 c19 -19 -117 -341
-150 -354 -25 -9 -50 18 -85 92 -54 114 -110 263 -103 274 8 13 324 2 338 -12z
m82 -635 c28 -28 27 -42 -10 -110 -29 -55 -54 -53 -83 5 -27 52 -29 92 -7 114
24 24 71 20 100 -9z"/>
</g>
</svg>
